<svg xmlns="http://www.w3.org/2000/svg" width="217.4" height="217.4" viewBox="0 0 217.4 217.4">
  <g id="Group_3" data-name="Group 3" transform="translate(-2143 -1121.1)">
    <path id="Path_119" data-name="Path 119" d="M98.717,83.767A3.693,3.693,0,1,0,95.024,87.4a3.673,3.673,0,0,0,3.693-3.633m15.01,0a3.663,3.663,0,1,0,3.693-3.693,3.623,3.623,0,0,0-3.693,3.693m98.217,22.455A105.722,105.722,0,1,1,106.222.5,105.86,105.86,0,0,1,211.944,106.222m-46.935,4.527v-1.132h-2.978v1.132a55.839,55.839,0,1,1-111.678,0v-1.132H47.375v1.132a58.817,58.817,0,1,0,117.634,0" transform="translate(2145.478 1123.578)" fill="#fff"/>
    <path id="Path_120" data-name="Path 120" d="M23.2,13.86a3.663,3.663,0,1,1-3.693,3.693A3.623,3.623,0,0,1,23.2,13.86" transform="translate(2239.695 1189.792)" fill="#1d1d1b"/>
    <path id="Path_121" data-name="Path 121" d="M19.443,13.86a3.663,3.663,0,1,1-3.693,3.693,3.673,3.673,0,0,1,3.693-3.693" transform="translate(2221.06 1189.792)" fill="#1d1d1b"/>
    <path id="Path_122" data-name="Path 122" d="M126,19.952a58.817,58.817,0,1,1-117.634,0V18.82h2.978v1.132a55.839,55.839,0,1,0,111.678,0V18.82H126Z" transform="translate(2184.483 1214.375)" fill="#1d1d1b"/>
    <path id="Path_123" data-name="Path 123" d="M214.422,108.7A105.722,105.722,0,1,0,108.7,214.422,105.822,105.822,0,0,0,214.422,108.7m2.978,0A108.7,108.7,0,1,1,108.7,0,108.847,108.847,0,0,1,217.4,108.7" transform="translate(2143 1121.1)" fill="#1d1d1b"/>
  </g>
</svg>
