<svg xmlns="http://www.w3.org/2000/svg" width="217.4" height="217.4" viewBox="0 0 217.4 217.4">
  <g id="Group_2" data-name="Group 2" transform="translate(-2606.271 -1121.1)">
    <path id="Path_110" data-name="Path 110" d="M177.808,83.767a3.693,3.693,0,1,0-3.693,3.633,3.673,3.673,0,0,0,3.693-3.633m15.01,0a3.663,3.663,0,1,0,3.693-3.693,3.623,3.623,0,0,0-3.693,3.693m96.907,22.455A105.722,105.722,0,1,1,184,.5,105.86,105.86,0,0,1,289.724,106.222m-46.16,22.157H124.44v2.978H243.564Z" transform="translate(2530.969 1123.578)" fill="#fff"/>
    <rect id="Rectangle_12" data-name="Rectangle 12" width="119.123" height="2.978" transform="translate(2655.409 1251.957)" fill="#1d1d1b"/>
    <path id="Path_111" data-name="Path 111" d="M101.2,13.86a3.663,3.663,0,1,1-3.693,3.693A3.618,3.618,0,0,1,101.2,13.86" transform="translate(2626.276 1189.792)" fill="#1d1d1b"/>
    <path id="Path_112" data-name="Path 112" d="M97.438,13.86a3.663,3.663,0,1,1-3.687,3.693,3.67,3.67,0,0,1,3.687-3.693" transform="translate(2607.646 1189.792)" fill="#1d1d1b"/>
    <path id="Path_113" data-name="Path 113" d="M292.2,108.7A105.722,105.722,0,1,0,186.48,214.422,105.822,105.822,0,0,0,292.2,108.7m2.978,0A108.7,108.7,0,1,1,186.48,0a108.843,108.843,0,0,1,108.7,108.7" transform="translate(2528.491 1121.1)" fill="#1d1d1b"/>
  </g>
</svg>
