<svg xmlns="http://www.w3.org/2000/svg" width="217.4" height="217.4" viewBox="0 0 217.4 217.4">
  <g id="Group_1" data-name="Group 1" transform="translate(-2681.291 -1124.1)">
    <path id="Path_114" data-name="Path 114" d="M137.717,83.767a3.693,3.693,0,1,0-3.693,3.633,3.673,3.673,0,0,0,3.693-3.633m15.01,0a3.663,3.663,0,1,0,3.693-3.693,3.623,3.623,0,0,0-3.693,3.693M145.222.5A105.722,105.722,0,1,1,39.5,106.222,105.822,105.822,0,0,1,145.222.5m58.787,167.607v-1.191a58.817,58.817,0,0,0-117.634,0v1.191h2.978v-1.191a55.839,55.839,0,0,1,111.678,0v1.191Z" transform="translate(2644.769 1126.578)" fill="#fff"/>
    <path id="Path_115" data-name="Path 115" d="M62.2,13.86a3.663,3.663,0,1,1-3.693,3.693A3.623,3.623,0,0,1,62.2,13.86" transform="translate(2738.985 1192.792)" fill="#1d1d1b"/>
    <path id="Path_116" data-name="Path 116" d="M58.443,13.86a3.663,3.663,0,1,1-3.693,3.693,3.673,3.673,0,0,1,3.693-3.693" transform="translate(2720.35 1192.792)" fill="#1d1d1b"/>
    <path id="Path_117" data-name="Path 117" d="M162.026,77.357a55.839,55.839,0,0,0-111.678,0v1.191H47.37V77.357a58.817,58.817,0,0,1,117.634,0v1.191h-2.978Z" transform="translate(2683.774 1216.136)" fill="#1d1d1b"/>
    <path id="Path_118" data-name="Path 118" d="M253.422,108.7A105.722,105.722,0,1,0,147.7,214.422,105.822,105.822,0,0,0,253.422,108.7M147.7,0A108.7,108.7,0,1,1,39,108.7,108.809,108.809,0,0,1,147.7,0" transform="translate(2642.291 1124.1)" fill="#1d1d1b"/>
  </g>
</svg>
