<?xml version="1.0" standalone="no"?>
<!DOCTYPE svg PUBLIC "-//W3C//DTD SVG 20010904//EN"
 "http://www.w3.org/TR/2001/REC-SVG-20010904/DTD/svg10.dtd">
<svg version="1.0" xmlns="http://www.w3.org/2000/svg"
 width="918.000000pt" height="918.000000pt" viewBox="0 0 918.000000 918.000000"
 preserveAspectRatio="xMidYMid meet">

<g transform="translate(0.000000,918.000000) scale(0.100000,-0.100000)"
fill="#000000" stroke="none">
<path d="M2400 6825 c-151 -43 -243 -152 -271 -322 -21 -129 16 -269 95 -360
24 -27 65 -56 114 -80 76 -38 77 -38 197 -37 125 0 185 15 272 66 30 18 33 24
33 66 0 26 -3 64 -6 84 l-7 38 -51 -29 c-80 -46 -157 -64 -246 -59 -112 7
-186 54 -205 131 l-7 25 271 7 271 8 0 26 c0 14 -5 67 -10 116 -18 156 -94
270 -208 310 -68 24 -176 28 -242 10z m195 -185 c36 -22 65 -73 65 -114 l0
-26 -170 0 c-155 0 -170 2 -170 18 0 33 46 97 85 119 53 30 144 32 190 3z"/>
<path d="M1785 6803 c-44 -8 -82 -18 -85 -24 -4 -5 -19 -120 -34 -257 -15
-136 -31 -260 -34 -276 -4 -26 -22 4 -134 227 -70 141 -131 257 -136 257 -11
0 -165 -30 -167 -33 -1 -1 -18 -130 -37 -287 l-34 -285 -126 258 c-112 228
-129 257 -150 256 -29 0 -167 -25 -173 -30 -2 -2 87 -167 198 -367 l202 -362
30 5 c17 2 60 9 96 15 l66 11 27 222 c15 122 30 240 33 261 6 39 9 35 124
-196 l118 -235 93 16 93 17 18 104 c108 612 124 720 108 719 -9 -1 -52 -8 -96
-16z"/>
<path d="M3282 6776 c-29 -7 -70 -21 -92 -31 -41 -19 -40 -15 -56 -142 l-6
-53 69 32 c57 27 82 33 158 36 142 6 209 -30 191 -102 -8 -33 -47 -51 -131
-60 -107 -12 -211 -38 -261 -65 -156 -85 -142 -324 24 -388 98 -38 241 -15
310 50 l23 22 -6 -51 -7 -51 88 -10 c49 -6 91 -8 94 -6 7 6 59 500 59 569 2
111 -58 192 -173 237 -65 25 -210 32 -284 13z m239 -496 c-6 -28 -18 -62 -27
-76 -26 -39 -85 -64 -151 -64 -77 0 -103 18 -103 70 0 48 30 74 103 90 105 22
182 36 185 34 2 -2 -1 -26 -7 -54z"/>
<path d="M4090 6683 c0 -5 -29 -179 -64 -388 -35 -209 -63 -381 -61 -383 6 -7
179 -31 184 -26 3 3 26 126 51 272 l45 267 45 23 c114 57 250 -12 250 -128 0
-19 -18 -137 -39 -263 -38 -227 -38 -227 -17 -232 44 -10 140 -25 156 -25 13
0 24 48 60 271 l45 271 40 21 c85 43 196 19 238 -51 24 -43 22 -99 -18 -332
-19 -113 -35 -212 -35 -221 0 -13 18 -19 78 -28 42 -7 84 -14 93 -17 13 -4 22
35 59 253 48 294 49 349 5 439 -32 65 -93 114 -173 140 -77 24 -199 16 -272
-17 l-55 -25 -47 47 c-100 100 -265 122 -389 52 -3 -2 -4 10 -1 27 2 16 3 30
1 30 -2 0 -42 7 -89 15 -100 18 -90 17 -90 8z"/>
<path d="M7654 6599 c-201 -68 -297 -269 -236 -490 46 -167 159 -273 316 -299
124 -20 297 34 393 124 l55 51 -11 43 c-6 23 -16 60 -22 83 l-10 40 -57 -52
c-147 -135 -340 -158 -432 -52 -17 19 -28 39 -23 43 4 4 118 36 253 70 135 35
248 66 252 70 12 9 -30 149 -64 213 -82 153 -243 213 -414 156z m198 -175 c26
-13 75 -90 65 -100 -7 -7 -300 -84 -321 -84 -16 0 -18 5 -12 42 21 129 155
200 268 142z"/>
<path d="M6795 6450 c-125 -23 -211 -84 -241 -172 -30 -92 0 -211 65 -257 47
-34 103 -49 233 -65 136 -17 161 -30 156 -80 -2 -22 -12 -35 -38 -50 -53 -31
-190 -27 -290 8 -41 15 -82 29 -90 32 -14 5 -15 -4 -9 -68 4 -40 8 -81 8 -90
1 -12 23 -24 84 -43 193 -62 403 -16 484 106 54 82 40 226 -27 283 -42 35
-109 54 -242 70 -154 17 -192 43 -158 107 35 65 212 72 353 14 16 -7 17 -2 12
51 -13 127 -10 122 -68 139 -66 20 -168 26 -232 15z"/>
<path d="M5536 6183 c-17 -256 -18 -273 -1 -329 31 -107 104 -178 214 -210 92
-27 181 -14 294 44 4 2 7 -10 7 -26 0 -26 4 -30 38 -36 36 -6 142 -9 142 -3 0
1 11 166 25 367 14 201 25 377 25 391 0 26 0 27 -92 31 -51 3 -94 4 -96 3 -2
-2 -11 -122 -21 -269 -13 -190 -22 -270 -32 -282 -43 -52 -162 -69 -235 -33
-89 43 -94 72 -70 414 8 105 13 191 11 193 -2 2 -46 6 -97 9 l-94 6 -18 -270z"/>
<path d="M2190 5534 c-472 -28 -944 -100 -1369 -209 -231 -60 -281 -75 -281
-84 0 -17 22 -71 29 -71 5 0 84 20 177 45 880 235 1705 290 2684 179 221 -25
456 -60 1000 -149 834 -136 1137 -174 1580 -196 584 -29 1195 34 1778 182 311
79 712 211 712 235 0 17 -21 64 -29 64 -3 0 -87 -27 -185 -61 -519 -175 -978
-272 -1516 -321 -178 -16 -783 -16 -975 0 -389 33 -659 70 -1370 187 -698 114
-949 149 -1325 180 -174 15 -768 27 -910 19z"/>
<path d="M2173 4990 c-431 -29 -843 -94 -1263 -201 -280 -71 -302 -78 -296
-96 4 -8 9 -26 12 -39 3 -13 10 -24 14 -24 5 0 75 18 155 40 447 123 919 201
1395 231 208 13 757 7 965 -11 369 -31 650 -69 1325 -180 1028 -169 1351 -203
1895 -203 524 0 941 51 1450 177 320 79 745 217 745 241 0 7 -5 25 -10 41
l-10 30 -228 -76 c-894 -298 -1712 -387 -2672 -290 -284 29 -552 67 -1150 165
-716 117 -966 151 -1370 185 -166 15 -791 21 -957 10z"/>
<path d="M2220 4453 c-425 -24 -879 -93 -1291 -197 -269 -67 -322 -85 -315
-103 3 -8 9 -26 12 -39 3 -13 8 -24 11 -24 3 0 71 18 152 40 582 159 1070 228
1673 237 621 10 973 -25 2058 -202 1000 -164 1314 -197 1850 -197 695 0 1276
97 1988 333 127 43 212 76 212 83 0 7 -5 26 -10 43 l-11 29 -217 -72 c-829
-277 -1575 -373 -2442 -313 -348 24 -639 63 -1380 184 -784 128 -1119 171
-1525 195 -154 9 -628 11 -765 3z"/>
<path d="M2205 3913 c-345 -21 -722 -72 -1034 -139 -205 -44 -539 -131 -553
-143 -4 -4 -2 -24 4 -44 10 -32 15 -37 32 -32 118 33 472 120 586 144 424 87
750 121 1220 128 638 10 949 -20 2000 -192 1100 -180 1297 -200 1915 -200 342
1 462 4 585 18 487 55 911 147 1360 297 289 96 262 81 243 128 l-15 39 -201
-68 c-533 -178 -1011 -277 -1547 -320 -185 -15 -690 -15 -885 0 -397 30 -648
63 -1335 176 -809 133 -1158 178 -1575 205 -143 9 -671 11 -800 3z"/>
<path d="M2255 3374 c-22 -2 -103 -8 -180 -14 -286 -22 -627 -76 -951 -150
-139 -31 -388 -96 -441 -115 -9 -3 -9 -14 -1 -42 5 -21 11 -39 13 -41 1 -1 60
13 130 33 660 186 1363 270 2054 244 486 -17 831 -58 1621 -189 988 -164 1288
-199 1810 -207 599 -10 1037 39 1592 178 239 59 705 205 730 228 10 10 -23 82
-36 77 -6 -3 -119 -41 -251 -84 -445 -148 -843 -235 -1315 -288 -193 -21 -791
-30 -1028 -15 -369 24 -745 74 -1484 197 -934 155 -1216 184 -1808 189 -228 1
-433 1 -455 -1z"/>
<path d="M2395 2839 c-428 -15 -815 -65 -1238 -160 -163 -37 -462 -115 -479
-125 -5 -3 8 -73 16 -81 1 -2 34 6 72 18 144 42 436 111 609 144 797 153 1544
160 2500 24 116 -16 442 -67 725 -114 943 -154 1192 -182 1700 -192 638 -12
1158 53 1767 222 160 45 524 163 555 181 14 8 15 13 1 47 -12 29 -20 36 -32
32 -74 -31 -431 -144 -578 -184 -508 -139 -936 -199 -1474 -208 -581 -9 -955
27 -1919 187 -852 142 -1253 191 -1645 205 -93 3 -215 7 -270 9 -55 1 -194 0
-310 -5z"/>
</g>
</svg>
